<?xml version="1.0" standalone="no"?>
<svg xmlns:xlink="http://www.w3.org/1999/xlink" id="wave" style="transform:rotate(180deg); transition: 0.3s" viewBox="0 0 1440 150" version="1.1" xmlns="http://www.w3.org/2000/svg"><defs><linearGradient id="sw-gradient-0" x1="0" x2="0" y1="1" y2="0"><stop stop-color="rgba(0, 138, 153, 1)" offset="0%"/><stop stop-color="rgba(0, 138, 153, 1)" offset="100%"/></linearGradient></defs><path style="transform:translate(0, 0px); opacity:1" fill="url(#sw-gradient-0)" d="M0,45L24,57.5C48,70,96,95,144,87.5C192,80,240,40,288,20C336,0,384,0,432,7.5C480,15,528,30,576,47.5C624,65,672,85,720,92.5C768,100,816,95,864,85C912,75,960,60,1008,67.5C1056,75,1104,105,1152,97.5C1200,90,1248,45,1296,30C1344,15,1392,30,1440,52.5C1488,75,1536,105,1584,117.5C1632,130,1680,125,1728,105C1776,85,1824,50,1872,42.5C1920,35,1968,55,2016,70C2064,85,2112,95,2160,97.5C2208,100,2256,95,2304,80C2352,65,2400,40,2448,45C2496,50,2544,85,2592,87.5C2640,90,2688,60,2736,52.5C2784,45,2832,60,2880,77.5C2928,95,2976,115,3024,102.5C3072,90,3120,45,3168,25C3216,5,3264,10,3312,32.5C3360,55,3408,95,3432,115L3456,135L3456,150L3432,150C3408,150,3360,150,3312,150C3264,150,3216,150,3168,150C3120,150,3072,150,3024,150C2976,150,2928,150,2880,150C2832,150,2784,150,2736,150C2688,150,2640,150,2592,150C2544,150,2496,150,2448,150C2400,150,2352,150,2304,150C2256,150,2208,150,2160,150C2112,150,2064,150,2016,150C1968,150,1920,150,1872,150C1824,150,1776,150,1728,150C1680,150,1632,150,1584,150C1536,150,1488,150,1440,150C1392,150,1344,150,1296,150C1248,150,1200,150,1152,150C1104,150,1056,150,1008,150C960,150,912,150,864,150C816,150,768,150,720,150C672,150,624,150,576,150C528,150,480,150,432,150C384,150,336,150,288,150C240,150,192,150,144,150C96,150,48,150,24,150L0,150Z"/></svg>